<?xml version="1.0" standalone="no"?>
<!DOCTYPE svg PUBLIC "-//W3C//DTD SVG 20010904//EN"
 "http://www.w3.org/TR/2001/REC-SVG-20010904/DTD/svg10.dtd">
<svg version="1.0" xmlns="http://www.w3.org/2000/svg"
 width="507.000000pt" height="507.000000pt" viewBox="0 0 507.000000 507.000000"
 preserveAspectRatio="xMidYMid meet">
<metadata>
Created by potrace 1.14, written by Peter Selinger 2001-2017
</metadata>
<g transform="translate(0.000000,507.000000) scale(0.100000,-0.100000)"
fill="#000000" stroke="none">
<path d="M2359 5066 c-2 -2 -39 -6 -82 -10 -326 -28 -691 -145 -1012 -326 -46
-26 -233 -150 -266 -177 -175 -142 -329 -292 -438 -428 -182 -226 -346 -525
-430 -787 -29 -90 -80 -282 -86 -323 -1 -11 -8 -51 -14 -89 -21 -123 -26 -198
-25 -401 0 -217 12 -336 51 -515 31 -145 31 -145 33 -145 1 0 3 -10 6 -22 2
-12 19 -66 38 -120 107 -310 262 -584 464 -823 393 -461 919 -761 1517 -864
148 -25 162 -27 365 -30 172 -4 248 0 405 18 44 5 47 6 220 40 158 32 424 130
595 219 245 129 425 262 626 462 316 315 539 697 655 1125 7 25 14 50 15 55 9
33 44 208 48 245 3 25 9 72 13 105 10 76 10 407 1 505 -21 223 -68 426 -153
655 -84 227 -232 486 -396 690 -79 98 -264 287 -344 350 -27 22 -52 42 -55 45
-10 11 -87 68 -150 112 -112 77 -272 165 -420 231 -104 46 -355 129 -434 143
-17 3 -51 10 -76 15 -118 27 -272 41 -461 44 -114 2 -208 2 -210 1z"/>
</g>
</svg>
